<?xml version="1.0" encoding="UTF-8"?>
<!DOCTYPE svg PUBLIC "-//W3C//DTD SVG 1.1//EN" "http://www.w3.org/Graphics/SVG/1.1/DTD/svg11.dtd">
<svg xmlns="http://www.w3.org/2000/svg" version="1.1" width="1000px" height="216px" style="shape-rendering:geometricPrecision; text-rendering:geometricPrecision; image-rendering:optimizeQuality; fill-rule:evenodd; clip-rule:evenodd" xmlns:xlink="http://www.w3.org/1999/xlink">
<g><path style="opacity:0.984" fill="#004eec" d="M -0.5,-0.5 C 13.8333,-0.5 28.1667,-0.5 42.5,-0.5C 63.8123,21.479 85.479,43.1457 107.5,64.5C 129.521,43.1457 151.188,21.479 172.5,-0.5C 186.833,-0.5 201.167,-0.5 215.5,-0.5C 215.5,71.5 215.5,143.5 215.5,215.5C 201.5,215.5 187.5,215.5 173.5,215.5C 173.667,163.166 173.5,110.832 173,58.5C 151.833,79.6667 130.667,100.833 109.5,122C 107.833,122.667 106.167,122.667 104.5,122C 83.6667,101.167 62.8333,80.3333 42,59.5C 41.5,111.499 41.3333,163.499 41.5,215.5C 27.5,215.5 13.5,215.5 -0.5,215.5C -0.5,143.5 -0.5,71.5 -0.5,-0.5 Z"/></g>
<g><path style="opacity:0.982" fill="#004eec" d="M 272.5,-0.5 C 326.833,-0.5 381.167,-0.5 435.5,-0.5C 435.5,12.5 435.5,25.5 435.5,38.5C 395.167,38.5 354.833,38.5 314.5,38.5C 314.5,54.8333 314.5,71.1667 314.5,87.5C 352.167,87.5 389.833,87.5 427.5,87.5C 427.5,100.5 427.5,113.5 427.5,126.5C 389.833,126.5 352.167,126.5 314.5,126.5C 314.5,143.167 314.5,159.833 314.5,176.5C 354.833,176.5 395.167,176.5 435.5,176.5C 435.5,189.5 435.5,202.5 435.5,215.5C 381.167,215.5 326.833,215.5 272.5,215.5C 272.5,143.5 272.5,71.5 272.5,-0.5 Z"/></g>
<g><path style="opacity:0.984" fill="#004eec" d="M 492.5,-0.5 C 521.833,-0.5 551.167,-0.5 580.5,-0.5C 617.43,4.04397 646.263,21.7106 667,52.5C 687.185,91.9555 685.852,130.622 663,168.5C 641.983,195.429 614.483,211.095 580.5,215.5C 551.167,215.5 521.833,215.5 492.5,215.5C 492.5,143.5 492.5,71.5 492.5,-0.5 Z M 534.5,38.5 C 549.504,38.3334 564.504,38.5001 579.5,39C 607.822,43.6634 626.656,59.4968 636,86.5C 642.52,111.061 638.187,133.395 623,153.5C 611.227,166.137 596.727,173.637 579.5,176C 564.504,176.5 549.504,176.667 534.5,176.5C 534.5,130.5 534.5,84.5 534.5,38.5 Z"/></g>
<g><path style="opacity:0.971" fill="#004eec" d="M 727.5,-0.5 C 741.833,-0.5 756.167,-0.5 770.5,-0.5C 770.5,71.5 770.5,143.5 770.5,215.5C 756.167,215.5 741.833,215.5 727.5,215.5C 727.5,143.5 727.5,71.5 727.5,-0.5 Z"/></g>
<g><path style="opacity:0.983" fill="#004eec" d="M 815.5,-0.5 C 876.833,-0.5 938.167,-0.5 999.5,-0.5C 999.5,12.5 999.5,25.5 999.5,38.5C 976.167,38.5 952.833,38.5 929.5,38.5C 929.5,97.5 929.5,156.5 929.5,215.5C 915.167,215.5 900.833,215.5 886.5,215.5C 886.5,156.5 886.5,97.5 886.5,38.5C 862.833,38.5 839.167,38.5 815.5,38.5C 815.5,25.5 815.5,12.5 815.5,-0.5 Z"/></g>
</svg>
